<?xml version="1.0" standalone="no"?>
<!DOCTYPE svg PUBLIC "-//W3C//DTD SVG 1.1//EN" "http://www.w3.org/Graphics/SVG/1.1/DTD/svg11.dtd" >
<!--
2013-9-30: Created.
-->
<svg>
<metadata>
Created by iconfont
</metadata>
<defs>

<font id="iconfont" horiz-adv-x="1024" >
  <font-face
    font-family="iconfont"
    font-weight="500"
    font-stretch="normal"
    units-per-em="1024"
    ascent="896"
    descent="-128"
  />
    <missing-glyph />
    
    <glyph glyph-name="x" unicode="x" horiz-adv-x="1001"
d="M281 543q-27 -1 -53 -1h-83q-18 0 -36.5 -6t-32.5 -18.5t-23 -32t-9 -45.5v-76h912v41q0 16 -0.5 30t-0.5 18q0 13 -5 29t-17 29.5t-31.5 22.5t-49.5 9h-133v-97h-438v97zM955 310v-52q0 -23 0.5 -52t0.5 -58t-10.5 -47.5t-26 -30t-33 -16t-31.5 -4.5q-14 -1 -29.5 -0.5
t-29.5 0.5h-32l-45 128h-439l-44 -128h-29h-34q-20 0 -45 1q-25 0 -41 9.5t-25.5 23t-13.5 29.5t-4 30v167h911zM163 247q-12 0 -21 -8.5t-9 -21.5t9 -21.5t21 -8.5q13 0 22 8.5t9 21.5t-9 21.5t-22 8.5zM316 123q-8 -26 -14 -48q-5 -19 -10.5 -37t-7.5 -25t-3 -15t1 -14.5
t9.5 -10.5t21.5 -4h37h67h81h80h64h36q23 0 34 12t2 38q-5 13 -9.5 30.5t-9.5 34.5q-5 19 -11 39h-368zM336 498v228q0 11 2.5 23t10 21.5t20.5 15.5t34 6h188q31 0 51.5 -14.5t20.5 -52.5v-227h-327z" />
    

    
    <glyph glyph-name="shezhi" unicode="&#58880;" d="M915.0996 192.8828H1000V407.177734375h-84.900390625c-86.1211 0-106.6289 49.7441-45.8984 110.5352l60.1191 60.1191-151.5508 151.4902-60.0586-60.0586c-60.8516-60.8516-110.6563-40.2227-110.4746 45.7773 0 0.2441-0.123 0.3672-0.123 0.5488V800H392.9140625v-85.205078125c-0.2441-85.8164-49.8652-106.3242-110.627-45.5332l-60.0898 60.0586L70.709 577.832l60.0586-60.1191c60.8223-60.791 40.1914-110.5352-45.7773-110.5352H0v-214.294921875h84.9921875c85.9688 0 106.5977-49.7441 45.7773-110.5957l-60.0586-60.0586 151.4902-151.5508 60.0898 60.1191c60.7598 60.7305 110.3828 40.2227 110.627-45.5332V-200h214.203125v84.412109375c0 0.1836 0.123 0.3672 0.123 0.5488-0.1836 85.998 49.6211 106.5684 110.4746 45.8379l60.0586-60.1191 151.5508 151.5508-60.1191 60.0586C808.4727 143.1387 828.9805 192.8828 915.0996 192.8828zM500 112.5c-103.5469 0-187.5 83.9844-187.5 187.5s83.9531 187.5 187.5 187.5c103.5156 0 187.5-83.9844 187.5-187.5S603.5156 112.5 500 112.5z"  horiz-adv-x="1000" />

    
    <glyph glyph-name="iconfontzhuyedianjihou" unicode="&#58882;" d="M988.534 358.217l-377.853 390.66c-23.489 24.25-54.864 37.585-88.511 37.585-33.643 0-65.013-13.34-88.51-37.585l-377.817-390.66c-38.986-40.306-33.962-75.163-27.509-89.725 4.59-10.323 20.131-38.735 64.764-38.735h55.366v-300.493c0-68.209 49.342-132.473 119.428-132.473h160.847v318.020c0 34.111-5.2 53.085 29.873 53.085h127.099c35.075 0 29.871-19.013 29.871-53.085v-318.031h160.847c70.112 0 119.429 64.226 119.429 132.473v300.493h55.366c44.678 0 60.181 28.403 64.761 38.735 6.527 14.562 11.556 49.422-27.463 89.725v0zM988.534 358.217z"  horiz-adv-x="1024" />

    
    <glyph glyph-name="jinlingyingcaiwangtubiao08" unicode="&#59147;" d="M567.962 532.685h-140.723c-7.578 0-14.413 4.454-17.536 11.366l-78.848 176.179c-2.662 5.939-2.125 12.8 1.408 18.278 3.558 5.453 9.626 8.755 16.128 8.755h285.952c6.298 0 12.211-3.098 15.795-8.269 3.584-5.197 4.403-11.802 2.176-17.69l-66.381-176.179c-2.842-7.501-9.984-12.442-17.971-12.442zM629.197 435.917l-4.762 14.182c-2.637 7.834-9.958 13.107-18.202 13.107h-222.131c-9.062 0-16.922-6.374-18.765-15.232l-26.598-126.157 290.458 114.099zM679.552 285.645l-34.893 104.141-317.901-124.902-29.798-141.389 377.037 160.998c1.818 0.794 3.686 0.845 5.555 1.152zM399.616-70.656l101.171-100.275c3.61-3.558 8.474-5.555 13.517-5.555 0.102 0 0.23 0 0.333 0 5.171 0.077 10.112 2.253 13.645 6.042l216.397 229.786c4.838 5.12 6.426 12.467 4.224 19.174l-349.286-149.171zM733.466 124.749l-38.912 116.096c-0.538-0.282-0.896-0.768-1.485-1.024l-408.371-174.387-1.715-8.115c-1.357-6.4 0.614-13.005 5.248-17.613l74.112-73.446 371.123 158.49z"  horiz-adv-x="1024" />

    
    <glyph glyph-name="xingchengmiaoshu" unicode="&#59096;" d="M831.424 800h-638.848c-70.848 0-128.576-57.152-128.576-127.616v-768.768c0-70.336 57.536-127.616 128.576-127.616h638.912c70.784 0 128.512 57.152 128.512 127.616v768.768c0 70.4-57.536 127.616-128.576 127.616zM544.128-32h-256.256c-17.6 0-31.872 14.848-31.872 32 0 17.664 13.76 32 31.872 32h256.32c17.536 0 31.808-14.848 31.808-32 0-17.664-13.76-32-31.872-32zM608.576 160h-321.152c-17.344 0-31.424 14.848-31.424 32 0 17.664 14.592 32 31.424 32h321.152c17.344 0 31.424-14.848 31.424-32 0-17.664-14.592-32-31.424-32zM736 352h-448c-17.664 0-32 14.848-32 32 0 17.664 14.784 32 32 32h448c17.664 0 32-14.848 32-32 0-17.664-14.784-32-32-32zM736 544h-448c-17.664 0-32 14.848-32 32 0 17.664 14.784 32 32 32h448c17.664 0 32-14.848 32-32 0-17.664-14.784-32-32-32z"  horiz-adv-x="1024" />

    
    <glyph glyph-name="pengyouquan" unicode="&#58930;" d="M797.33 865.54h-540.606c-121.058 0-219.193-98.633-219.193-220.273v-543.37c0-121.659 98.154-220.273 219.193-220.273h540.606c121.058 0 219.193 98.633 219.193 220.273v543.37c0.001 121.659-98.154 220.273-219.193 220.273zM691.753 656.455c24.366-14.133 46.87-31.395 66.785-51.38 31.107-31.041 55.252-67.419 71.674-108.028l-171.57-164.046 33.083 323.443zM527.053 700.964c43.965 0 86.689-8.665 127.085-25.743l-5.374-237.292-205.315 252.131c27.405 7.231 55.471 10.901 83.61 10.901zM295.599 605.067c31.051 31.069 67.339 55.178 108.014 71.673l164.050-171.57-323.468 33.121c14.254 24.561 31.563 47.046 51.435 66.785zM199.673 373.557c0 43.988 8.673 86.743 25.743 127.045l237.329-5.34-252.131-205.339c-7.231 27.307-10.918 55.401-10.918 83.646zM362.356 90.651c-24.368 14.188-46.851 31.542-66.771 51.436-31.107 30.973-55.198 67.397-71.674 108.015l171.578 163.97-33.149-323.443zM527.053 46.154c-43.965 0-86.694 8.665-127.085 25.692l5.374 237.292 205.287-252.112c-27.405-7.206-55.471-10.857-83.572-10.857zM758.564 142.075c-31.004-31.089-67.401-55.235-108.014-71.728l-164.005 171.562 323.455-33.083c-14.167-24.358-31.422-46.773-51.436-66.758zM828.731 246.476l-237.268 5.327 252.11 205.371c7.231-27.307 10.892-55.408 10.892-83.572 0-44.14-8.629-86.842-25.708-127.085z"  horiz-adv-x="1024" />

    
    <glyph glyph-name="anquan" unicode="&#59010;" d="M922.12937 752.064834c-12.304597 11.159983-28.472265 17.312281-45.212239 17.312281-1.573844 0-3.004611 0-4.578455-0.143077-0.85846-0.143077-11.589213-0.715384-28.186111-0.715384-27.613804 0-81.553722 1.859997-132.48903 14.021517-65.958362 15.738438-141.932092 88.278328-164.108982 102.585998C536.251494 892.423082 523.37459 896 510.497687 896c-12.876904 0-25.61073-3.576918-36.770713-10.730753-2.718457-1.859997-82.412183-84.27218-160.245911-102.729075-51.078384-12.16152-105.876763-14.021517-133.490567-14.021517-16.596898 0-27.327651 0.572307-28.329188 0.715384-1.430767 0.143077-2.861534 0.143077-4.435378 0.143077-16.739975 0-33.050719-6.152298-45.355316-17.312281C88.421404 740.04639 80.838338 723.020262 80.838338 705.278751l0-160.245911C80.838338-47.733954 481.739269-123.993838 498.765397-126.998449c3.863071-0.572307 7.869219-1.001537 11.73229-1.001537 3.863071 0 7.869219 0.286153 11.73229 1.001537 17.026128 3.004611 420.931669 79.407572 420.931669 672.031289l0 160.245911C943.161646 723.020262 935.435504 740.04639 922.12937 752.064834L922.12937 752.064834zM773.901903 522.85595l-277.99804-268.984208c-1.71692-2.861534-3.863071-5.723068-6.438452-8.155372-8.155372-7.869219-18.886125-11.73229-29.616878-11.446136-10.730753-0.143077-21.461506 3.576918-29.616878 11.446136-2.575381 2.432304-4.721531 5.293838-6.438452 8.155372L275.136505 397.663833c-15.881514 15.309208-15.881514 40.061478 0 55.370685 15.881514 15.309208 41.492245 15.309208 57.230682 0l127.338268-123.332121 256.822687 248.381162c15.881514 15.309208 41.492245 15.309208 57.230682 0C789.64034 562.917428 789.64034 538.165158 773.901903 522.85595L773.901903 522.85595zM773.901903 522.85595"  horiz-adv-x="1024" />

    
    <glyph glyph-name="zhaopin1" unicode="&#59020;" d="M940.944649 28.739523c-0.953068 11.596323-3.269169 22.801136-6.791435 33.46021C895.36215 220.580431 768.561888 344.476668 608.496513 379.079769c100.333173 38.516876 171.619515 135.797067 171.619515 249.673565C780.117347 776.253499 660.370845 896 512.817951 896 365.21892 896 245.369598 776.253499 245.369598 628.753333c0-115.148573 72.949927-213.344923 175.10619-250.954868-0.303189-0.072502-0.612969-0.148958-0.916158-0.22146-1.353805 0.49433-2.708928 0.98866-4.057461 1.504081C255.436793 344.476668 128.636532 220.580431 89.846786 62.199732c-3.522266-10.659073-5.839685-21.86916-6.786162-33.46021-0.325599-3.95464-0.499603-7.950145-0.499603-11.987832 0-79.943049 64.808642-144.751691 144.750372-144.751691l283.977431 0 1.421034 0 283.977431 0c79.943049 0 144.751691 64.808642 144.751691 144.751691C941.438979 20.78806 941.26893 24.784883 940.944649 28.739523zM512.709858-105.156681l0 1.415761-0.710517-0.710517-0.710517-0.705244-125.157767 115.116936 93.90161 220.846875c-29.649255 30.751281-49.448819 83.850233-49.448819 83.850233l-0.251779 3.249396c29.551707 24.402766 57.311962 31.750487 80.956755 30.978014l0-0.05141c0.237278 0.010546 0.473239 0.015819 0.710517 0.026364 0.237278-0.010546 0.478511-0.015819 0.710517-0.026364l0 0.05141c23.650066 0.772473 51.410321-6.575248 80.962028-30.978014l-0.251779-3.249396c0 0-19.799565-53.104225-49.448819-83.850233l93.896337-220.846875L512.709858-105.156681z"  horiz-adv-x="1024" />

    
    <glyph glyph-name="yue" unicode="&#59305;" d="M511.69966-63.269743c-276.954753 0-393.100006 100.045577-393.100006 305.648258 0 170.33034 131.716904 348.077603 291.391557 404.145573l203.399503 0c159.696142-56.06797 291.412023-233.816257 291.412023-404.145573C904.797619 36.774811 788.651342-63.269743 511.69966-63.269743L511.69966-63.269743 511.69966-63.269743zM620.638791 274.580938l0 0.065492c18.381649 0.094144 33.247218 15.173584 33.247218 33.747615 0 18.59859-14.865569 33.664727-33.247218 33.785477l0 0.082888-67.436902 0c0.149403 0.74906-0.085958 1.428535 0 2.186805l79.017658 81.589227c12.901845 14.661931 6.332219 26.782993-6.695492 40.082904-13.115716 13.372565-34.532491 16.174378-45.12985 4.520967l-67.949578-73.154114-73.385381 74.132394c-9.298783 9.376555-27.386744 6.313799-40.374546-6.814196-13.030781-13.158694-16.014742-31.411407-6.758937-40.786938l75.072813-75.795267c-1.409093-1.812275-2.304486-3.821025-2.860141-5.960759l-60.995189 0 0-0.065492-0.170892 0c-18.48705 0-33.460066-15.118326-33.460066-33.789571 0-18.650779 14.973016-33.793664 33.460066-33.793664 0.042979 0 0.107447 0.029676 0.170892 0.029676l0-0.065492 66.884316 0 0-33.653471-66.884316 0 0-0.094144-0.170892 0c-18.48705 0-33.460066-15.120372-33.460066-33.793664 0-18.651802 14.973016-33.791617 33.460066-33.791617 0.042979 0 0.107447 0.042979 0.170892 0.042979l0-0.042979 66.884316 0 0-34.017768 0.682545 0c-0.5137-2.63399-0.833995-5.393847-0.833995-8.207939 0-23.334451 18.727527-42.23901 41.822524-42.23901 23.097044 0 41.823548 18.905582 41.823548 42.23901 0 2.813069-0.320295 5.572926-0.831948 8.207939l0.38374 0 0 34.017768 67.565838 0.042979c18.381649 0.105401 33.269731 15.171538 33.269731 33.748638 0 18.585287-14.888082 33.655518-33.269731 33.775244l0 0.112564-67.565838 0 0 33.657564L620.638791 274.582985 620.638791 274.580938 620.638791 274.580938zM670.627299 781.442918l-7.036253-8.876158c-0.170892-0.170892-0.25685-0.358157-0.427742-0.530073l-59.461253-75.05951L402.971329 696.977177l-59.35176 74.930573c-0.448208 0.427742-0.74599 0.947582-1.131777 1.418302l-6.438643 8.116865 1.130753 2.288113c-0.533143 2.079358-1.258667 4.106528-1.258667 6.357801 0 10.759041 6.694469 19.844977 16.07921 23.542182l0.768503 1.600451c0 0 82.234933 16.612353 150.571321 16.889669 71.486124 0.298805 150.545738-16.889669 150.545738-16.889669l0.811482-1.617847c9.320273-3.731998 15.972786-12.797467 15.972786-23.52581 0-2.207271-0.726547-4.172019-1.239224-6.204305L670.627299 781.442918 670.627299 781.442918 670.627299 781.442918zM670.627299 781.442918"  horiz-adv-x="1024" />

    
    <glyph glyph-name="hezuo" unicode="&#58881;" d="M344.22549 170.86827c24.250807 24.249591 24.250807 63.565625 0 87.816432-24.249591 24.249591-63.565625 24.249591-87.816432 0 24.250807 24.249591 24.250807 63.571707 0 87.821297-24.249591 24.250807-63.571707 24.250807-87.821297 0l-46.376719-46.377935c-24.249591-24.25324-24.249591-63.57049 0-87.820081 24.250807-24.250807 63.571707-24.250807 87.821297 0-24.254456-24.250807-24.254456-63.568058 0-87.816432 24.250807-24.250807 63.566841-24.250807 87.816432 0L344.22549 170.86827 344.22549 170.86827zM344.22549 170.86827M432.067464 83.027512c24.250807 24.249591 24.250807 63.566841 0 87.815216-24.249591 24.250807-63.566841 24.250807-87.816432 0l-46.376719-46.376719c-24.250807-24.249591-24.250807-63.565625 0-87.815216 24.249591-24.254456 63.566841-24.254456 87.816432 0-24.249591-24.254456-24.249591-63.572923 0-87.821297 24.250807-24.250807 63.566841-24.250807 87.816432 0l46.376719 46.376719c24.255672 24.249591 24.255672 63.57049 0 87.816432C495.634305 107.275886 456.318271 107.275886 432.067464 83.027512L432.067464 83.027512zM432.067464 83.027512M580.534024 66.426084c-4.670634 18.011132-14.039877 35.045567-28.123541 49.121933-3.073618 3.074834-6.299274 5.934381-9.66359 8.587155l-10.465139-10.472437L580.534024 66.426084 580.534024 66.426084zM580.534024 66.426084M936.033731 762.57799c-77.508197 77.506981-193.483443 93.067246-286.457034 46.713637 13.437803-5.002687 25.757816-12.871002 36.196197-23.309382 19.114326-19.11311 29.636632-44.527926 29.636632-71.558004 0-27.028861-10.522306-52.443678-29.636632-71.553139l-31.058499-31.058499 187.673126-187.673126 53.807162-52.671128 39.834183 39.836615C1033.034526 508.306976 1033.034526 665.577194 936.033731 762.57799L936.033731 762.57799zM936.033731 762.57799M810.045813 391.432876 637.229925 564.248764l-15.037252 15.037252-118.562339-118.557474c-19.109461-19.114326-44.523061-29.642713-71.553139-29.642713-27.034943 0-52.443678 10.528387-71.558004 29.642713-19.114326 19.109461-29.637848 44.524278-29.637848 71.553139 0 27.030078 10.523522 52.444894 29.637848 71.558004l118.556258 118.557474-39.819587 39.824452c-97.000796 97.000796-254.275879 97.000796-351.276675 0s-97.000796-254.274663 0-351.275459l40.000817-39.999601 8.082386 8.08117c20.415779 20.416995 47.563839 31.663006 76.437843 31.663006 28.872789 0 56.015983-11.246011 76.431762-31.663006 16.311946-16.310729 26.307589-36.579335 29.995444-57.740712 21.792643-3.763266 41.866638-14.116505 57.825854-30.076936 16.316811-16.314378 26.307589-36.59393 29.990578-57.763822 21.802373-3.758401 41.886099-14.112856 57.85018-30.076936 15.940971-15.943404 26.292993-35.989424 30.061124-57.754091 17.574476-3.046859 34.019-10.381214 48.095366-21.480051l8.938669 8.937453 92.870204-90.919241c20.116566-20.121432 52.739241-20.121432 72.855808 0 20.121432 20.116566 20.121432 52.738025 0 72.854591l-92.872637 90.919241 19.733428 19.732212 92.870204-90.919241c20.121432-20.116566 52.739241-20.116566 72.860673 0 20.116566 20.121432 20.116566 52.738025 0 72.859457l-92.877502 90.919241 19.408673 19.403808 92.549098-90.590837c20.297797-20.302662 53.208737-20.302662 73.50775 0 20.300229 20.29658 20.300229 53.208737 0 73.505318L810.045813 391.432876 810.045813 391.432876zM810.045813 391.432876M552.409267-37.320372l-7.168937-7.165288 6.081555-5.953842c20.29658-20.297797 53.208737-20.297797 73.506534 0 20.297797 20.301446 20.297797 53.208737 0 73.511399l-44.295611 43.355403C589.8461 30.531533 580.476857-9.255214 552.409267-37.320372L552.409267-37.320372zM552.409267-37.320372M393.044561 493.251479c21.556678-21.551813 56.506156-21.551813 78.062835 0l182.14256 182.14256c21.550597 21.555462 21.550597 56.506156 0 78.061619-21.557895 21.556678-56.506156 21.556678-78.062835 0l-182.14256-182.14256C371.487883 549.757636 371.487883 514.811807 393.044561 493.251479L393.044561 493.251479zM393.044561 493.251479"  horiz-adv-x="1024" />

    
    <glyph glyph-name="kefu" unicode="&#58936;" d="M516.667511 88.136693c5.004179 0 10.095748 0.308016 15.221701 0.916884 49.157857 5.899573 90.900417 40.259787 106.306927 87.609664 1.163296 3.541463-0.515747 7.336502-3.906784 8.892339-3.352356 1.561567-7.409566 0.212029-9.306369-2.965546-0.179079-0.302285-19.710133-31.848813-95.745574-42.117909-11.382251-1.527184-22.457919-2.328025-32.956236-2.328025-53.270939 0.034383-77.00963 20.112702-77.22739 20.297512-2.680452 2.383897-6.772045 2.445501-9.519831 0.123206-2.775006-2.322294-3.413959-6.358015-1.521454-9.446767C431.202495 111.522956 472.816118 88.136693 516.667511 88.136693L516.667511 88.136693zM516.667511 88.136693M925.504492 559.366173c-0.670471 0-1.280772-0.123206-1.918292-0.123206C879.03425 752.120901 708.803342 896 504.703612 896c-209.712777 0-383.850469-151.824469-422.446972-352.685021C44.728879 536.561558 16.165088 503.576669 16.165088 463.6865l0-159.653796c0-44.746787 35.883101-81.032457 80.188637-81.032457 24.992242 0 47.051889 11.802012 61.726326 29.927655 35.457609-93.781437 107.642139-169.397117 198.995267-209.293016 0.21776 0.475633 1.946945 3.83945 4.028557 6.519902 1.438361 1.858122 3.050071 3.379576 4.432559 3.379576 1.432631 0 2.747786-0.520045 3.872401-1.313722-21.142764 15.741746-97.51344 96.656727-114.056026 209.572379-7.257707 49.699391 29.967769 98.487629 73.322038 106.557638 69.600064 12.959577 138.836239 27.722836 208.436303 40.437434 44.243933 8.070009 74.479604 32.340205 92.969135 72.750419 4.332275 9.446767 10.588573 28.546599 13.459565 56.091789 0.760727 4.095891 4.118813 7.240515 8.422436 7.240515 2.870992 0 5.310762-1.465581 6.928202-3.575846l1.919725 1.191949c27.432012-39.827133 81.833297-128.012715 89.645432-220.999042 8.971133-106.311225 3.966954-179.124679-77.406468-253.615744-0.095986-0.094554-0.219192-0.212029-0.336668-0.308016-1.130346-1.219169-1.802249-2.807956-1.802249-4.554333 0-2.289344 1.220601-4.24775 2.988468-5.439699 0.671904-0.275065 1.343808-0.643251 2.015711-0.918316 0.547265-0.123206 1.068742-0.302285 1.61744-0.302285 0.552995 0 1.04009 0.179079 1.527184 0.302285 1.158998 0.610301 2.254961 1.315155 3.385306 1.925456 82.293172 45.335598 145.423475 121.045832 174.596134 212.108136 11.809175-17.543995 30.298706-30.16977 51.776705-34.573676C874.366739 79.429164 734.623645-18.634406 561.493092-33.519439c-10.375111 25.73721-35.916051 44.014712-65.91104 44.014712-39.173853 0-70.938141-31.026483-70.938141-69.264828 0-38.239778 31.758557-69.230445 70.938141-69.230445 31.585209 0 58.037302 20.291781 67.220464 48.172207 200.406408 16.290443 361.057315 135.410819 394.595199 320.495243 29.626803 12.38366 50.432898 41.450304 50.432898 75.380729L1007.830614 477.593046C1007.830614 522.743835 970.969026 559.366173 925.504492 559.366173L925.504492 559.366173zM851.573585 512.961832C799.305488 654.551588 663.860285 755.698179 504.524533 755.698179c-158.669579 0-293.627687-100.289878-346.382879-240.96275-2.624579 3.211958-5.703303 5.959744-8.724721 8.741912C179.282985 694.900199 326.816725 825.23664 504.703612 825.23664c177.035904 0 324.10977-129.054237 354.955741-299.286578C856.610715 521.854171 853.801326 517.579201 851.573585 512.961832L851.573585 512.961832zM851.573585 512.961832M357.086779 43.634886c-0.005731 0-0.005731 0-0.011461 0C357.042368 43.563255 357.042368 43.551794 357.086779 43.634886L357.086779 43.634886zM357.086779 43.634886"  horiz-adv-x="1024" />

    
    <glyph glyph-name="qingchu" unicode="&#58984;" d="M608 128c-17.696 0-32 14.304-32 32L576 512c0 17.696 14.304 32 32 32s32-14.304 32-32l0-352C640 142.304 625.696 128 608 128zM416 128c-17.696 0-32 14.304-32 32L384 512c0 17.696 14.304 32 32 32s32-14.304 32-32l0-352C448 142.304 433.696 128 416 128zM928 672l-160 0L768 736c0 52.928-42.72 96-95.264 96L352 832C299.072 832 256 788.928 256 736l0-64L96 672C78.304 672 64 657.696 64 640s14.304-32 32-32l832 0c17.696 0 32 14.304 32 32S945.696 672 928 672zM320 736c0 17.632 14.368 32 32 32l320.736 0C690.272 768 704 753.952 704 736l0-64L320 672 320 736zM736.128-64 288.064-64c-52.928 0-96 43.072-96 96L192.064 512.48c0 17.664 14.336 32 32 32s32-14.336 32-32L256.064 32c0-17.664 14.368-32 32-32l448.064 0c17.664 0 32 14.336 32 32L768.128 511.168c0 17.664 14.304 32 32 32s32-14.336 32-32L832.128 32C832.128-20.928 789.056-64 736.128-64z"  horiz-adv-x="1024" />

    
    <glyph glyph-name="tuichu" unicode="&#58937;" d="M434.23893-101.719706C210.283725-61.016781 51.98102 125.613261 51.98102 348.941005c0 125.582556 46.996956 238.36673 135.848325 326.011372 41.407386 40.84501 62.439373 53.892639 86.871675 53.892639 35.241114 0 64.04991-29.633664 63.966264-65.79778-0.044544-19.297536-9.801211-32.422062-59.783183-80.420234-66.443095-63.805937-98.903081-139.661471-98.903081-231.125996 0-143.458714 95.505203-273.093786 232.96-316.210893 50.694851-15.902106 138.664637-15.915418 189.439985-0.03072 50.18112 15.700787 113.636659 56.276326 148.294912 94.824602 31.939277 35.524096 65.134234 97.833216 76.934195 144.410675 9.973248 39.366758 9.90121 115.085435-0.146432 154.008591-18.050406 69.924337-60.175411 134.903332-116.863744 180.265544-40.781107 32.633226-49.635021 54.106614-36.177357 87.740733 11.529523 28.815027 43.371622 44.644081 73.491763 36.53356 46.88087-12.623703 130.02071-101.242076 170.621082-181.864131 29.083853-57.753288 40.883814-107.775667 43.479859-184.32001 2.061107-60.77097 0.798669-78.517094-8.295117-116.604518-39.459891-165.26935-158.819635-291.460147-320.871731-339.23543-35.96544-10.603162-59.600026-13.912371-109.827379-15.377715-35.199985-1.026918-75.151928 0.159744-88.782075 2.636954zm42.155628 458.32489c-30.638623 16.652954-30.173537 12.820429-30.173537 248.645719 0 194.130284 0.873861 217.189494 8.735043 230.497408 9.319183 15.776125 34.430162 30.312705 52.363187 30.312705 18.705966 0 43.896776-13.325073 54.335227-28.741469 9.456896-13.966756 10.088653-26.219812 11.501312-223.068918 1.65929-231.208735 1.134848-235.573893-30.626662-254.938399-19.635149-11.971174-47.027267-13.092403-66.134569-2.707046z"  horiz-adv-x="1024" />

    
    <glyph glyph-name="shalou" unicode="&#59064;" d="M865.276309-40.267309l-32.360897 0c-5.700925 117.834541-32.288479 206.617296-70.929646 273.21794l-0.516986 1.319621c-40.588414 69.646234-94.254356 115.124891-150.756679 142.824869 56.502323 28.204894 110.170276 73.168577 150.756679 142.736358l0.516986 1.398074c39.958778 69.348515 67.397245 163.053699 71.559283 288.550492l31.729249 0c21.671159 0 38.717609 17.012252 38.717609 38.387704 0 21.367405-17.04645 38.367588-38.717609 38.367588L155.549358 886.535338C134.133674 886.537349 116.867958 869.535155 116.867958 848.169762c0-21.377463 17.265716-38.387704 38.683412-38.387704l31.769481 0c4.626721-125.496793 31.520041-219.201977 71.527097-288.550492l0.800624-1.398074c40.560251-69.567781 93.968706-114.531464 150.682249-142.736358-56.719578-27.699978-110.126021-73.178635-150.682249-142.824869l-0.800624-1.319621c-38.317297-66.600645-64.989339-155.3834-70.676183-273.21794L155.549358-40.265298c-21.417696 0-38.683412-17.002194-38.683412-37.838532 0-21.890426 17.265716-38.932852 38.683412-38.932852l709.724939 0c21.671159 0 38.717609 17.044438 38.717609 38.932852C903.993918-57.269504 886.947468-40.267309 865.276309-40.267309L865.276309-40.267309zM298.840923 209.668166l0.591416 1.645503c46.577 80.008078 97.448805 122.722772 164.924503 143.593307l2.641254 1.617341 0.555207 0c1.39204 0.543137 2.719707 1.09432 3.890469 2.202722l0.476753 0.508939 1.659585 1.146622 0.253464 0.551183 1.655562 1.607283 0.293696 0.551183c1.096332 1.142599 1.617341 2.466244 2.755916 3.85426l0 0.516986c1.138576 1.685736 1.659585 3.604819 1.659585 5.509821l0.247429 0.516986 0 1.685736 0.26151 1.365889 0 1.068169-0.26151 1.388016 0 1.104378-0.247429 1.098343c0 1.907014-0.514974 3.824086-1.659585 5.475624l0 0.551183c-1.138576 1.607283-1.659585 2.74787-2.755916 3.812016l-0.293696 0.848903-1.655562 1.365889-0.253464 0-1.659585 1.607283-0.476753 0.55923c-1.170762 0.840856-2.496418 1.643492-3.890469 2.484348l-0.555207 0.295708-2.641254 1.068169c-67.473687 20.27912-118.347503 63.579195-164.924503 144.140468l-0.591416 0.551183C262.623755 607.292602 238.019656 693.580951 233.638353 809.780046l553.613333 0c-3.890469-116.199095-28.579055-202.487444-65.236768-265.811163l-0.551183-0.551183c-46.359746-80.561273-97.452828-123.869394-164.343146-144.140468l-3.301065-1.068169-0.549172-0.295708c-1.363877-0.840856-2.500441-1.643492-3.898515-2.484348l-0.508939-0.55923-1.661596-1.607283-1.870805-1.365889-0.255475-0.848903c-0.881089-1.064146-1.649527-2.196687-2.236919-3.812016l-0.551183-0.551183c-0.516986-1.651538-1.100355-3.56861-1.651538-5.475624l0-1.098343 0-1.104378 0-1.388016 0-1.068169 0-1.365889 0-1.685736 0-0.516986c0.551183-1.905002 1.134552-3.824086 1.651538-5.509821l0.551183-0.516986c0.587392-1.388016 1.357842-2.711661 2.236919-3.85426l0.255475-0.551183 1.870805-1.607283 0-0.551183 1.661596-1.146622 0.508939-0.508939c1.134552-1.108401 2.53665-1.659585 3.898515-2.202722l0.549172 0 3.301065-1.617341c66.890318-20.870535 117.9834-63.583218 164.343146-143.593307l0.551183-1.645503c19.43424-32.920127 35.000139-72.92316 46.572977-119.494125 2.458197-13.262597 10.70583-42.491404 12.972924-80.261542-36.826689 32.602291-140.000558 56.524451-263.361013 58.371116L518.199806 431.320293c1.247203 0.376173 2.480325 0.834821 3.685284 1.381981l0.297719 0.551183 6.57799 2.458197 0.587392 0.297719 0.551183 0c44.67401 13.958616 80.810713 36.148773 110.391554 65.240791 31.878109 31.220309 55.943093 70.122988 72.321686 112.912112 4.441652 12.049591-0.989716 25.205572-13.077528 29.576818-12.049591 4.922429-25.491222-1.112425-30.192373-13.188167-14.437382-36.444481-34.4912-69.871535-61.674193-96.461101-24.141426-23.582196-53.929464-42.173569-91.212789-53.710197l-1.104378-0.516986-2.715684-0.551183-2.242954-1.092309-2.202722 1.092309-1.651538 0.551183-2.168524 0.516986c-36.659724 11.536629-67.117631 30.130013-90.985477 53.710197-27.40427 26.587554-47.385671 60.014608-61.901505 96.461101-4.367222 12.075742-18.106573 18.110596-29.568771 13.188167-12.087812-4.371246-17.597633-17.527227-13.222364-29.576818 16.495267-42.789124 40.071428-81.691802 72.365942-112.912112 29.051785-29.092018 65.787951-51.280163 110.160218-65.240791l0.257487 0 0.836833-0.297719 6.026807-2.458197 1.651538-0.551183c0.852926-0.412382 1.760166-0.838845 2.774021-1.275366l0-363.022597c-115.577505 0-215.522728-19.355787-263.306699-47.48424 1.645503 18.56321 5.485682 39.604733 12.76975 69.25598C263.766354 137.294178 279.631984 176.748039 298.840923 209.668166L298.840923 209.668166z"  horiz-adv-x="1024" />

    
    <glyph glyph-name="pingguhuizhang" unicode="&#59001;" d="M704.512 554.496c0-4.096-2.048-8.704-4.096-12.8l-183.296-341.504c-8.704-16.896-27.648-27.648-49.152-27.648-16.896 0-31.744 6.144-40.448 19.456l-100.352 115.2c-4.096 4.096-6.144 10.752-6.144 16.896 0 14.848 12.8 27.648 27.648 27.648 4.096 0 8.704-2.048 12.8-4.096l91.648-49.152 200.704 272.896c6.656 6.144 12.8 10.752 23.552 10.752 14.336-2.048 27.136-12.8 27.136-27.648z m-192 299.008c21.504 0 42.496-8.704 57.344-23.552l89.6-89.6h125.952c45.056 0 83.456-36.352 83.456-82.944v-125.952l89.6-89.6c31.744-31.744 31.744-85.504 0-117.248l-89.6-89.6v-125.952c0-45.056-36.352-82.944-83.456-82.944h-125.952l-89.6-89.6c-14.848-12.8-36.352-21.504-57.344-21.504-21.504 0-42.496 8.704-57.856 23.552l-89.6 89.6h-125.952c-45.056 0-82.944 36.352-82.944 82.944v125.952l-89.6 89.6c-31.744 31.744-31.744 85.504 0 117.248l89.6 89.6v125.952c0 45.056 36.352 80.896 82.944 80.896h125.952l89.6 89.6c15.36 14.848 36.352 23.552 57.856 23.552m0 42.496c-34.304 0-66.048-12.8-87.552-36.352l-76.8-76.8h-108.544c-68.096 0-125.952-55.296-125.952-125.952v-108.544l-76.8-76.8c-49.152-49.152-49.152-128 0-177.152l76.8-76.8v-108.544c0-68.096 55.296-125.952 125.952-125.952h108.544l76.8-76.8c23.552-21.504 53.248-34.304 87.552-34.304 34.304 0 64 12.8 87.552 36.352l76.8 76.8h108.544c68.096 0 125.952 55.296 125.952 125.952v108.544l76.8 76.8c49.152 49.152 49.152 128 0 177.152l-76.8 76.8v108.544c0 68.096-55.296 125.952-125.952 125.952h-108.544l-76.8 76.8c-21.504 21.504-53.248 34.304-87.552 34.304z"  horiz-adv-x="1026" />

    
    <glyph glyph-name="tianjia" unicode="&#58885;" d="M921.6-128H102.4c-56.5504 0-102.4 45.8496-102.4 102.4V793.6C0 850.1504 45.8496 896 102.4 896h819.2c56.5504 0 102.4-45.8496 102.4-102.4v-819.2c0-56.5504-45.8496-102.4-102.4-102.4zM813.7984 457.6h-261.00224V717.39904H462.19776v-259.79904H202.39872v-91.8016h259.79904v-259.79904h90.5984v259.79904h261.00224v91.8016z"  horiz-adv-x="1024" />

    
    <glyph glyph-name="shuaxin" unicode="&#59054;" d="M675.185104 148.249695c-49.475831-35.104519-107.373473-52.704362-166.561503-51.889811a295.671023 295.671023 0 0 0-23.273053 1.178849c-3.137457 0.299829-6.275937 0.813528-9.428743 1.215688-6.043646 0.805342-12.102642 1.62808-17.983583 2.779299-3.64604 0.701988-7.208169 1.6465-10.773368 2.479471-5.770424 1.375324-11.515265 2.759857-17.144472 4.461615-2.716878 0.843204-5.358031 1.816369-8.04728 2.733251-6.494924 2.208295-12.96529 4.481058-19.268855 7.157003-1.424442 0.580215-2.794649 1.26276-4.222162 1.90949-7.347339 3.273557-14.637372 6.707772-21.657252 10.580986-0.340761 0.179079-0.62831 0.328481-0.970095 0.505513a287.712771 287.712771 0 0 0-64.70979 49.080835c-0.287549 0.299829-0.601704 0.660032-0.918929 1.001817a279.762705 279.762705 0 0 0-16.981767 18.913769c-1.124614 1.397836-2.221598 2.90926-3.358491 4.345981-38.885636 49.255821-62.336744 111.597681-62.336743 179.416276h65.959247a4.789073 4.789073 0 0 1 4.218069 2.520403 4.782933 4.782933 0 0 1-0.216941 4.907777L186.635189 559.932941a4.783956 4.783956 0 0 1-4.003174 2.156107 4.782933 4.782933 0 0 1-3.99908-2.156107L67.753615 391.549953a4.786003 4.786003 0 0 1 4.000104-7.424086h65.974597c0-79.734996 24.549116-153.635099 66.25703-214.736713 0.50756-0.852414 0.876973-1.760087 1.438768-2.611477 4.317329-6.249331 9.115612-12.015661 13.749143-17.929348 1.726318-2.236947 3.345188-4.539386 5.139043-6.726192 6.827499-8.383948 14.0766-16.270569 21.533433-23.971971 0.713244-0.76748 1.370207-1.52575 2.070148-2.208295 25.028023-25.364691 53.333696-46.752814 84.114746-63.847143 0.796132-0.477884 1.591241-0.973164 2.468215-1.423419 8.866948-4.827959 17.98256-9.178033 27.221991-13.314237 2.302439-0.991584 4.550643-2.12336 6.892991-3.105734 7.896854-3.321652 16.009625-6.221702 24.194028-8.990769 3.862981-1.329275 7.701402-2.686179 11.619642-3.911076 7.143701-2.13257 14.449084-3.930519 21.820982-5.697769 4.880147-1.151219 9.730619-2.39556 14.709003-3.358491 2.068102-0.421602 4.013407-1.066285 6.04467-1.384533 6.935969-1.245364 13.925151-1.946328 20.873399-2.797719 2.509147-0.299829 4.974291-0.721431 7.485485-0.992607 12.485359-1.25355 24.932856-2.077312 37.361933-2.077312 76.085886 0 150.318564 23.559579 213.997885 68.722175 20.289092 14.436804 25.237801 42.74964 11.021008 63.324234-14.250562 20.620643-42.272779 25.592888-62.556755 11.162224M886.309546 384.125867c-0.047072 79.481216-24.437575 153.237033-65.942875 214.217896-0.602727 1.041726-1.01512 2.097778-1.702781 3.070942-5.149277 7.454786-10.786671 14.406105-16.392342 21.367657-0.64059 0.849344-1.24434 1.740644-1.926886 2.578731-37.987173 46.657646-85.667102 82.691327-139.714042 106.252953-1.493004 0.656963-2.962471 1.384533-4.466731 2.041496-8.622378 3.590781-17.46272 6.771217-26.343995 9.772574-3.202948 1.069355-6.346545 2.248204-9.622148 3.220344-7.742335 2.371-15.597233 4.304026-23.521716 6.155187-4.369517 1.028423-8.743128 2.152013-13.173021 3.028986-2.188852 0.425695-4.256954 1.083681-6.42227 1.479701-5.907547 1.027399-11.841699 1.480724-17.762549 2.260484-4.116761 0.521886-8.117888 1.167592-12.258185 1.590217-9.950629 0.933255-19.816325 1.329275-29.688159 1.509377-1.810229 0-3.545756 0.287549-5.342682 0.287549-0.331551 0-0.63138-0.097214-0.963954-0.12382-75.985602-0.054235-150.055574-23.288402-213.654055-68.39574-20.339234-14.391778-25.288966-42.73736-11.059893-63.32321 14.198374-20.588921 42.255383-25.575492 62.554708-11.143805 49.124837 34.82925 106.431008 52.454676 165.201529 51.92051 8.457626-0.056282 16.780175-0.479931 25.004487-1.260713 2.536776-0.289596 5.047969-0.670266 7.566326-0.987491 6.754844-0.837064 13.462616-1.808182 20.063965-3.125177 2.923586-0.576121 5.8001-1.328251 8.650007-1.987261 6.482645-1.480724 12.95301-3.068895 19.283182-5.003967 2.001587-0.64366 3.976568-1.37123 5.979178-2.027169 7.223518-2.39863 14.33345-4.975315 21.323655-7.922437 0.710175-0.301875 1.439792-0.671289 2.128477-0.958838 41.85527-18.231223 78.57866-46.288233 107.22714-81.404008 0.178055-0.205685 0.356111-0.481977 0.518816-0.684592 40.321334-49.700959 64.60132-113.229854 64.624856-182.406376h-65.985853a4.792143 4.792143 0 0 1-4.004198-7.42511l110.904903-168.370709a4.77884 4.77884 0 0 1 4.000104-2.152013 4.77884 4.77884 0 0 1 4.00522 2.152013l110.847598 168.370709a4.787026 4.787026 0 0 1-3.998058 7.42511H886.309546z"  horiz-adv-x="1024" />

    
    <glyph glyph-name="yuyin" unicode="&#58938;" d="M511.688 272.25c92.585 0 167.625 75.04 167.625 167.625v223.5C679.313 755.932 604.272 831 511.688 831c-92.585 0-167.625-75.068-167.625-167.625v-223.5c0-92.585 75.067-167.625 167.625-167.625zM819 425.599v0.224 0.112c0 23.159-18.774 41.906-41.906 41.906-23.133 0-41.906-18.747-41.906-41.906-0.057-123.428-100.073-223.444-223.5-223.5-123.429 0.056-223.444 100.072-223.5 223.5 0 23.159-18.747 41.906-41.906 41.906-23.161 0-41.906-18.747-41.906-41.906v-0.336c0-155.388 115.577-283.482 265.406-303.848v-100.938H330.094c-23.161 0-41.906-18.773-41.906-41.906S306.933-63 330.094-63h363.188c23.132 0 41.906 18.773 41.906 41.906s-18.774 41.906-41.906 41.906H553.594V121.751C703.45 142.117 819 270.211 819 425.599z"  horiz-adv-x="1024" />

    
    <glyph glyph-name="renwu1" unicode="&#58967;" d="M971.167382-128zM513.919554 708.945657c-32.467891 0-61.455656 30.528394-61.455655 64.925811 0 34.412375 28.987764 64.935783 61.455655 64.935783 36.127509 0 61.45067-30.528394 61.45067-64.935783 0.004986-41.941017-28.967821-64.925811-61.45067-64.925811z m169.688608 99.318243c-17.969023 0-28.99275 15.271676-28.99275 30.533379 0 30.538365-25.313189 57.202721-57.761136 57.202721H426.966233c-32.462906 0-57.776094-26.65937-57.776094-57.202721 0-19.125742-14.493882-30.533379-28.99275-30.533379h-21.643599c-17.969023 0-28.99275-15.261704-28.99275-30.528394v-91.590166c0-19.130728 14.493882-30.528394 28.99275-30.528394h383.028382c17.974009 0 28.982778 15.271676 28.982778 30.528394v91.590166c0 19.130728-14.488896 30.528394-28.982778 30.528394h-17.97401z m126.580901-393.269329l-321.582697-397.327815c-7.149717-11.397666-28.982778-7.728076-39.807071 3.864038l-216.829872 187.059329c-3.664604 3.878996-7.144731 11.422595 0 15.276661l39.812056 49.674079c3.674576 3.87401 10.824292 3.87401 14.498868 0l169.863113-145.118312c7.149717-3.859052 14.503854-3.859052 21.648585 3.859052l267.276759 343.804656c3.66959 7.728076 10.814321 7.728076 14.493882 3.859052l50.616406-45.805055c7.154703-3.888967 10.83925-7.74802 0.009971-19.145685z m0 324.47948v-133.730618c0-19.130728-14.488896-30.528394-28.982778-30.528394l-538.41257-3.893953c-17.969023 0-28.987764 15.271676-28.987764 30.538365V735.605027c0 19.130728-14.493882 30.533379-28.987764 30.533379h-17.969024c-46.961773 3.869024-68.605372-26.65937-68.605372-68.799821V-47.458489c0-34.412375 32.462906-80.197487 75.949537-80.197487h675.613344c36.137481 0 75.959509 41.936031 75.959509 80.197487V701.402058c0 34.407389-25.32316 68.799821-65.130231 68.79982h-17.978995c-17.964038-0.199434-32.45792-11.607072-32.467892-30.727827zM379.600606 99.953316z"  horiz-adv-x="1024" />

    
    <glyph glyph-name="tianjia2" unicode="&#58970;" d="M938.666667 469.333333H597.333333V810.666667a85.333333 85.333333 0 0 1-85.333333 85.333333 85.333333 85.333333 0 0 1-85.333333-85.333333v-341.333334H85.333333a85.333333 85.333333 0 0 1-85.333333-85.333333 85.333333 85.333333 0 0 1 85.333333-85.333333h341.333334v-341.333334a85.333333 85.333333 0 0 1 85.333333-85.333333 85.333333 85.333333 0 0 1 85.333333 85.333333V298.666667h341.333334a85.333333 85.333333 0 0 1 85.333333 85.333333 85.333333 85.333333 0 0 1-85.333333 85.333333z"  horiz-adv-x="1024" />

    
    <glyph glyph-name="shalou1" unicode="&#58945;" d="M828.751642 9.078005h-28.728298c-5.059226 104.608499-28.66383 183.425589-62.9671 242.550175l-0.459465 1.171686c-36.032658 61.828161-83.673701 102.201683-133.834124 126.792754 50.161447 25.039279 97.803513 64.956408 133.834124 126.714983l0.459465 1.241271c35.472909 61.564148 59.83169 144.751778 63.525825 256.161171h28.167527c19.238157 0 34.372855 15.102976 34.372855 34.079166 0 18.969027-15.134699 34.060747-34.372855 34.060747H198.688713c-19.010983 0.002047-34.339086-15.09172-34.339086-34.0587 0-18.978237 15.328104-34.078143 34.341133-34.078143h28.204365c4.107551-111.411439 27.982308-194.59907 63.498196-256.163218l0.710175-1.24127c36.008099-61.758576 83.420945-101.675704 133.768633-126.714983-50.353828-24.590048-97.764628-64.964594-133.768633-126.792755l-0.710175-1.171686c-34.015721-59.124586-57.694003-137.943722-62.742996-242.550175H198.688713c-19.013029 0-34.341133-15.09479-34.341133-33.592072 0-19.431561 15.328104-34.562167 34.341133-34.562167h630.060883c19.238157 0 34.372855 15.131629 34.372855 34.562167 0.001023 18.497283-15.131629 33.591049-34.370809 33.591049zM325.89693 230.960465l0.524956 1.459234c41.34771 71.02666 86.510306 108.948341 146.412604 127.476323l2.344395 1.433652h0.494257c1.236154 0.483001 2.412956 0.972141 3.453658 1.956562l0.422625 0.451278 1.473561 1.017166 0.225128 0.490164 1.468444 1.427512 0.260943 0.489141c0.973164 1.014096 1.435699 2.189875 2.446725 3.420912v0.459465c1.011027 1.496074 1.473561 3.200902 1.473561 4.891403l0.220011 0.458441v1.496074l0.232291 1.213641v0.947582l-0.232291 1.23206v0.981351l-0.220011 0.975211c0 1.692548-0.457418 3.394307-1.473561 4.860704v0.489141c-1.011027 1.427512-1.473561 2.439562-2.446725 3.385097l-0.260943 0.753153-1.468444 1.213641h-0.225128l-1.473561 1.425466-0.422625 0.497326c-1.040702 0.74599-2.216481 1.459235-3.453658 2.204202l-0.494257 0.26299-2.344395 0.947581c-59.899228 18.003026-105.063871 56.443523-146.412604 127.96137l-0.524956 0.490164c-32.152281 56.222489-53.994752 132.825145-57.883315 235.980549h491.471454c-3.453658-103.155405-25.369807-179.759083-57.912991-235.975432l-0.490164-0.489141c-41.156352-71.51887-86.513376-109.964484-145.895834-127.960347l-2.929726-0.948604-0.488117-0.261967c-1.210571-0.747014-2.219551-1.459235-3.461845-2.206248l-0.451278-0.496304-1.474584-1.427512-1.660826-1.213641-0.227174-0.753153c-0.782829-0.944512-1.464351-1.949398-1.985214-3.38305l-0.48914-0.490164a245.315148 245.315148 0 0 1-1.467421-4.860705v-7.304359c0.490164-1.691525 1.007957-3.394307 1.467421-4.891404l0.48914-0.458441a15.771195 15.771195 0 0 1 1.985214-3.421936l0.227174-0.48914 1.660826-1.427512v-0.489141l1.474584-1.01819 0.451278-0.451278c1.007957-0.984421 2.25332-1.473561 3.461845-1.955538h0.488117l2.929726-1.435698c59.382459-18.526959 104.739483-56.446593 145.895834-127.4753l0.490164-1.460258c17.250896-29.225625 31.070646-64.739467 41.343617-106.08206 2.182712-11.773138 9.504468-37.72009 11.517311-71.252811-32.692586 28.942169-124.285654 50.180889-233.800907 51.819203v322.280054a26.051329 26.051329 0 0 1 3.27151 1.227967l0.265037 0.489141 5.840008 2.181688 0.52291 0.264013h0.488117c39.660278 12.392238 71.739904 32.092929 98.002034 57.919131 28.29851 27.715225 49.663096 62.251809 64.202231 100.238982 3.942799 10.697643-0.877997 22.375613-11.609409 26.255991-10.69662 4.370541-22.629393-0.98749-26.803459-11.706623-12.81691-32.354895-30.619368-62.028729-54.750975-85.634356-21.431102-20.935822-47.876404-37.439704-80.974219-47.681976l-0.980328-0.459464-2.409886-0.489141-1.991354-0.970094-1.956561 0.970094-1.465374 0.489141-1.925863 0.459464c-32.54523 10.241248-59.58405 26.748201-80.772628 47.681976-24.328082 23.603581-42.067095 53.278437-54.954613 85.634356-3.875261 10.719132-16.07307 16.077164-26.248827 11.706623-10.730389-3.880377-15.622816-15.559371-11.738345-26.255991 14.644535-37.986149 35.574217-72.523757 64.243163-100.238982 25.791409-25.826202 58.404178-45.524846 97.794303-57.919131h0.229221l0.74292-0.264013 5.350868-2.181688 1.467421-0.489141c0.756223-0.366344 1.562589-0.744967 2.462075-1.131776v-322.275961c-102.604866 0-191.33063-17.181311-233.751788-42.153053 1.461281 16.479323 4.870938 35.158754 11.337209 61.482283 10.241248 41.829687 24.327058 76.855412 41.379433 106.082061z"  horiz-adv-x="1024" />

    
    <glyph glyph-name="guanyu" unicode="&#58921;" d="M548.977778 153.6c-5.688889 39.822222 2.844444 42.666667 25.6 79.644444 31.288889 48.355556 65.422222 122.311111 51.2 184.888889-5.688889 25.6-56.888889 76.8-76.8 79.644445-99.555556 17.066667-187.733333-54.044444-179.2-79.644445 5.688889-19.911111 119.466667 0 128-25.6 14.222222-56.888889-71.111111-145.066667-76.8-210.488889-5.688889-65.422222 28.444444-116.622222 102.4-122.311111 22.755556-2.844444 102.4 8.533333 128 71.111111-68.266667-8.533333-82.488889 2.844444-102.4 22.755556zM512 896c-281.6 0-512-230.4-512-512s230.4-512 512-512 512 230.4 512 512-230.4 512-512 512z m0-938.666667c-236.088889 0-426.666667 190.577778-426.666667 426.666667s190.577778 426.666667 426.666667 426.666667 426.666667-190.577778 426.666667-426.666667-190.577778-426.666667-426.666667-426.666667zM512 617.244444a79.644444 76.8 90 1 1 153.6 0 79.644444 76.8 90 1 1-153.6 0Z"  horiz-adv-x="1024" />

    
    <glyph glyph-name="icon-yxj-life1" unicode="&#58931;" d="M512 896c-240.128 0-435.2-195.072-435.2-435.2 0-145.92 81.408-272.896 182.272-353.792 75.776-60.928 180.224-122.88 227.328-150.016 15.872-8.704 34.816-9.216 50.688 0 47.616 27.136 153.088 89.6 227.84 149.504 99.328 79.872 182.272 208.384 182.272 354.304 0 240.128-195.072 435.2-435.2 435.2zM695.296 417.28l-134.656-134.656c-12.8-12.8-30.208-19.968-48.64-19.968s-35.328 7.168-48.64 19.968l-134.656 134.656c-54.784 54.784-56.32 143.872-3.072 198.656 26.624 27.648 62.464 43.008 101.376 43.008 30.72 0 60.928-10.24 84.992-28.672 24.576 18.432 54.272 28.672 84.992 28.672 38.4 0 74.24-15.36 101.376-43.008 52.736-54.784 51.712-143.872-3.072-198.656zM596.992 617.984c-24.576 0-48.128-9.216-66.56-25.6-5.12-4.608-11.776-7.168-18.432-7.168s-13.312 2.56-18.432 7.168c-18.432 16.384-41.984 25.6-66.56 25.6-27.136 0-52.736-10.752-71.68-30.208-37.376-38.912-36.352-102.4 2.56-141.312l134.656-134.656c5.12-5.12 12.288-8.192 19.456-8.192s14.336 3.072 19.456 8.192l134.656 134.656c38.912 38.912 40.448 102.4 2.56 141.312-18.944 19.456-44.544 30.208-71.68 30.208zM512-128c-104.448 0-202.752 10.752-276.992 30.72-84.48 22.528-127.488 53.76-127.488 92.16 0 35.84 37.376 65.536 111.616 87.552 10.752 3.072 22.016-3.072 25.6-13.824 3.072-10.752-3.072-22.016-13.824-25.6-65.024-19.456-82.432-39.936-82.432-48.128 0-27.648 128.512-81.92 363.52-81.92s363.52 54.272 363.52 81.92c0 8.192-17.408 28.672-81.92 48.128-10.752 3.072-16.896 14.848-13.824 25.6 3.072 10.752 14.848 16.896 25.6 13.824 73.728-22.016 111.104-51.712 111.104-87.552 0-38.4-43.008-69.632-127.488-92.16-74.24-19.968-172.544-30.72-276.992-30.72z"  horiz-adv-x="1024" />

    
    <glyph glyph-name="renwuxietong" unicode="&#58927;" d="M356.124444 244.3264c0-13.186844-5.609244-23.938844-16.839111-32.278756-11.218489-8.317156-25.338311-16.304356-42.348089-23.927466-16.9984-7.645867-35.373511-16.315733-55.102577-26.032356-19.717689-9.716622-37.751467-22.903467-54.078578-39.560533h-19.387733c-27.898311 0-52.212622 2.958222-72.965689 8.851911-20.741689 5.905067-38.263467 13.710222-52.542578 23.415467C28.558222 164.522667 17.863111 175.445333 10.717867 187.5968 3.572622 199.748267 0 212.059022 0 224.551822c0 14.563556 7.486578 26.362311 22.448356 35.396267a391.702756 391.702756 0 0 0 49.493333 24.974222 515.697778 515.697778 0 0 1 49.493333 23.950222c14.961778 8.328533 22.448356 19.091911 22.448356 32.267378 0 13.198222-4.096 25.338311-12.253867 36.443022s-17.180444 23.779556-27.0336 38.001778c-9.864533 14.222222-18.887111 30.879289-27.044978 49.959822-8.157867 19.091911-12.242489 43.554133-12.242489 73.386667 0 21.538133 2.207289 42.348089 6.633245 62.475378 4.425956 20.138667 11.047822 37.831111 19.888355 53.100089 8.851911 15.268978 20.0704 27.420444 33.678223 36.443022 13.607822 9.0112 29.5936 13.528178 47.957333 13.528178 24.496356 0 44.896711-4.164267 61.2352-12.504178a483.589689 483.589689 0 0 1-6.132622-78.062933c0-43.736178 3.572622-80.861867 10.717866-111.388445 7.145244-30.549333 16.156444-56.923022 27.044978-79.121067a10603.542756 10603.542756 0 0 1-28.558222-39.059911c-8.851911-12.140089-13.289244-26.532978-13.289244-43.201422 0-9.0112 4.767289-16.827733 14.290488-23.426844 9.534578-6.576356 20.923733-12.834133 34.190223-18.727823 13.266489-5.905067 27.386311-11.9808 42.348089-18.2272 14.961778-6.2464 28.239644-12.822756 39.799466-19.774577 0.682667-3.470222 1.024-9.022578 1.024-16.657067m506.129067 96.824889c0-7.634489 3.902578-14.574933 11.719111-20.821333 7.827911-6.257778 17.521778-12.151467 29.092978-17.703823 11.559822-5.552356 24.325689-10.922667 38.263466-16.133689 13.949156-5.211022 26.703644-10.752 38.263467-16.657066 11.5712-5.905067 21.265067-12.4928 29.0816-19.785956 7.827911-7.281778 11.741867-15.780978 11.741867-25.4976 0-15.280356-5.108622-28.785778-15.303111-40.607289-10.205867-11.787378-23.813689-21.686044-40.823467-29.661866-17.009778-7.9872-36.568178-14.062933-58.6752-18.2272a436.701867 436.701867 0 0 0-67.857067-7.281778 242.028089 242.028089 0 0 1-61.223822 30.72c-21.777067 7.281778-42.348089 13.880889-61.7472 19.774578-19.387733 5.893689-36.056178 12.4928-49.993955 19.774577-13.949156 7.281778-22.277689 17.874489-25.008356 31.744 2.730667 13.198222 11.5712 23.950222 26.544356 32.278756a493.818311 493.818311 0 0 0 48.469333 23.438222c17.339733 7.281778 32.995556 15.086933 46.933333 23.415467 13.949156 8.328533 20.912356 18.7392 20.912356 31.232 0 14.574933-5.438578 27.932444-16.315734 40.083911a521.693867 521.693867 0 0 0-33.678222 42.154667c10.888533 24.291556 19.899733 53.100089 27.044978 86.402844 7.133867 33.314133 10.706489 72.533333 10.706489 117.646222 0 9.705244-0.512 19.421867-1.524622 29.149867a846.734222 846.734222 0 0 1-3.572623 29.149867c17.681067 12.481422 33.678222 18.7392 47.957334 18.7392 31.971556 0 57.480533-5.381689 76.538311-16.145067 19.0464-10.752 33.496178-24.109511 43.360711-40.072533a141.289244 141.289244 0 0 0 19.399111-51.541334c3.060622-18.375111 4.585244-35.214222 4.585245-50.4832 0-31.232-4.926578-56.388267-14.791112-75.4688-9.875911-19.091911-20.753067-35.578311-32.654222-49.4592a4199.7312 4199.7312 0 0 1-32.654222-38.513777c-9.864533-11.798756-14.802489-25.679644-14.802489-41.642667m-286.731378-110.364445c0-14.563556 6.291911-27.397689 18.875734-38.513777 12.583822-11.104711 28.398933-21.686044 47.445333-31.755378a666.362311 666.362311 0 0 1 62.247822-28.626489 523.093333 523.093333 0 0 0 62.247822-29.673244c19.0464-10.752 34.861511-22.550756 47.445334-35.384889 12.5952-12.845511 18.887111-27.943822 18.887111-45.283556 0-11.810133-9.534578-23.085511-28.5696-33.837511-19.057778-10.763378-44.225422-20.650667-75.514311-29.673244-31.288889-9.022578-67.356444-16.133689-108.168534-21.344712A992.187733 992.187733 0 0 0 494.8992-71.111111c-48.969956 0-92.342044 2.605511-130.093511 7.805155-37.762844 5.211022-69.393067 12.151467-94.902045 20.821334-25.508978 8.681244-44.908089 18.568533-58.1632 29.673244-13.266489 11.104711-19.899733 22.209422-19.899733 33.314134 0 17.351111 6.291911 32.438044 18.875733 45.283555 12.583822 12.845511 28.410311 24.462222 47.445334 34.872889a538.794667 538.794667 0 0 0 61.735822 28.626489 694.499556 694.499556 0 0 1 61.7472 27.602489c19.0464 9.705244 34.861511 20.297956 47.445333 31.744 12.583822 11.446044 18.887111 25.156267 18.887111 41.119289a104.721067 104.721067 0 0 1-9.705244 44.760177 286.72 286.72 0 0 1-24.484978 42.177423l-32.142222 46.318933c-11.5712 16.657067-22.277689 35.396267-32.142222 56.206222-9.864533 20.821333-18.0224 44.771556-24.496356 71.839289-6.462578 27.079111-9.693867 58.299733-9.693866 93.684622 0 77.050311 14.119822 138.296889 42.348088 183.751111 28.239644 45.454222 71.941689 68.187022 131.128889 68.187023 49.664 0 88.7808-7.634489 117.3504-22.903467 28.5696-15.2576 50.176-34.872889 64.796445-58.823111 14.620444-23.927467 23.802311-50.312533 27.556978-79.109689a658.659556 658.659556 0 0 0 5.609244-84.844089c0-37.4784-3.231289-69.757156-9.693867-96.824889-6.462578-27.056356-14.449778-50.653867-23.984355-70.781155-9.5232-20.127289-19.729067-38.001778-30.606222-53.612089a2910.094222 2910.094222 0 0 1-30.6176-44.771556 274.693689 274.693689 0 0 1-23.984356-43.7248c-6.462578-14.904889-9.693867-31.744-9.693867-50.4832"  horiz-adv-x="1024" />

    
    <glyph glyph-name="tubiaozhizuomoban1" unicode="&#58892;" d="M893.3-62.9H129.8c-36.1 0-65.6 29.5-65.6 65.6V766.1c0 36.1 29.5 65.6 65.6 65.6h763.4c36.1 0 65.6-29.5 65.6-65.6v-763.4c0.1-36.1-29.4-65.6-65.5-65.6zM806.2 338.5v91.2l-87.5 9.3c-5.3 17.7-13 34.1-21.7 51.2l56.2 68.6-63.9 63.9-68.3-56.2c-17.4 8.7-33.8 16.4-51.5 21.7l-9.3 87.5H469l-9.3-87.5c-18.3-5.3-35.4-13-51.5-21.7l-68.6 56.2-63.3-63.9 55.9-68.6c-8.7-17.1-16.1-33.5-21.4-51.2l-87.8-9.3v-91.2l87.8-9.6c5-17.7 12.4-35.1 21.4-51.2l-55.9-68.6 63.3-63.3 68.6 55.9c16.1-9 33.8-16.4 51.5-21.7l9.3-87.5h91.2l9.3 87.5c17.7 5.3 34.4 12.7 51.5 21.7l68.3-55.9 63.9 63.3-56.2 68.5c8.7 16.1 16.4 33.5 21.7 51.2l87.5 9.7z m-231.5-14.8c-16.4-16.4-36.3-24.5-60.2-24.5-23.9 0-43.8 8-60.2 24.5-16.5 16.7-24.5 36.9-24.5 60.5 0 23.9 8.1 43.8 24.5 60.2 16.4 16.4 36.3 24.5 60.2 24.5 23.9 0 43.8-8.1 60.2-24.5 16.4-16.4 24.5-36.3 24.5-60.2 0-23.8-8-44-24.5-60.5z"  horiz-adv-x="1024" />

    
    <glyph glyph-name="xuexipindao" unicode="&#58923;" d="M500.544087 55.309956h22.908756c206.15936 110.456694 343.622128 91.454922 343.622128 91.454921l11.452843 11.429307V786.953422C688.936805 823.686021 511.998977 672.635793 511.998977 672.635793 331.735403 823.503872 145.468093 786.953422 145.468093 786.953422v-628.757191l11.454889-11.429307c219.049948-7.876388 343.621105-91.456968 343.621105-91.456968z m-11.454889 548.731576l11.454889 11.431353h22.908756l11.452843-11.431353V123.90217l-11.452843-11.4334H500.544087l-11.454889 11.4334V604.041532z m423.801238 102.888322v-594.461084c-320.928267 18.016329-389.437593-91.453898-389.437593-91.453898H500.544087c-107.158578 106.183368-389.43964 91.453898-389.43964 91.453898V706.929854H65.290005v-651.618875c306.779012 12.485359 389.437593-80.021521 389.437594-80.021521h114.542756c63.942311 94.872764 389.43964 80.021521 389.43964 80.021521V706.929854h-45.819559z"  horiz-adv-x="1024" />

    
    <glyph glyph-name="paihang-" unicode="&#59004;" d="M990.72-64.1024h-32.256v383.1808c0 36.1472-28.8768 64.1024-64.4608 64.1024H767.488c-36.2496 0-64.512-28.672-64.512-64.1024v-383.1808H638.976V830.0544c0 35.6352-28.8768 64.3584-64.4608 64.3584H447.8464c-36.1472 0-64.4608-28.8256-64.4608-64.3584v-894.1568H319.488V575.1296a64 64 0 0 1-64.512 63.6416H128.4096c-36.1472 0-64.4608-28.4672-64.4608-63.6416v-639.232H31.6928a32 32 0 0 1 0-63.8976h958.976c17.2544 0 31.744 14.336 31.744 31.9488a32.1536 32.1536 0 0 1-31.744 31.9488"  horiz-adv-x="1024" />

    
    <glyph glyph-name="tianjia1" unicode="&#58947;" d="M512-128a512 512 0 1 0 512 512 512 512 0 0 0-512-512z m209.454545 558.545455h-162.90909v162.90909a46.545455 46.545455 0 0 1-46.545455 46.545455 46.545455 46.545455 0 0 1-46.545455-46.545455v-162.90909h-162.90909a46.545455 46.545455 0 0 1-46.545455-46.545455 46.545455 46.545455 0 0 1 46.545455-46.545455h162.90909v-162.90909a46.545455 46.545455 0 0 1 93.09091 0v162.90909h162.90909a46.545455 46.545455 0 0 1 0 93.09091z"  horiz-adv-x="1024" />

    
    <glyph glyph-name="renwu" unicode="&#58944;" d="M669.904177 896C387.493129 896 157.904177 666.272407 157.904177 384S387.493129-128 669.904177-128s512 229.727593 512 512S952.176584 896 669.904177 896z m212.67479-409.128622l-238.461955-241.65069c-4.991064-5.129705-11.923098-7.902518-19.132413-7.902518h-0.138641c-7.209315 0-14.002708 2.772813-18.993772 7.763877L445.58357 405.489304c-10.536691 10.536691-10.536691 27.589494 0 38.126185 10.536691 10.536691 27.589494 10.536691 38.126185 0l141.274844-141.274845L844.314141 524.720282c10.39805 10.536691 27.450853 10.675332 38.126185 0.277281 10.536691-10.39805 10.675332-27.450853 0.138641-38.126185zM1206.859497 730.601679c-38.403466 54.901706-110.357975 87.204982-165.536961 48.524235l139.056593-198.672082c55.178987 38.680747 64.883834 95.246141 26.480368 150.147847zM124.075853 730.601679c-38.403466-54.901706-17.746006-119.230978 26.480368-150.147847L289.751455 779.125914c-44.226374 30.91687-127.272136 6.377471-165.675602-48.524235z"  horiz-adv-x="1663" />

    
    <glyph glyph-name="jihua" unicode="&#59073;" d="M533.333333 745.557333c191.637333-16.256 341.333333-177.045333 341.333334-371.989333 0-206.186667-167.146667-373.333333-373.333334-373.333333S128 167.381333 128 373.568c0 90.112 32 175.232 89.322667 242.346667a21.333333 21.333333 0 0 1-32.426667 27.690666A414.378667 414.378667 0 0 1 85.333333 373.568c0-229.76 186.24-416 416-416s416 186.24 416 416c0 218.453333-168.704 398.421333-384 414.784V789.333333h-42.666666v-213.333333h42.666666V745.557333zM271.317333 373.546667c-11.584 1.792-11.626667 4.672 0 6.464l243.754667 37.504c26.197333 4.010667 47.424-14.037333 47.424-40.746667 0-26.517333-21.461333-44.714667-47.424-40.725333L271.317333 373.546667z"  horiz-adv-x="1024" />

    
    <glyph glyph-name="shizhong" unicode="&#59047;" d="M662.53952 841.79584c-135.92064-23.79008-249.75744-114.55744-301.00608-238.61632a25.29664 25.29664 0 0 1 14.48448-33.16224c13.33632-5.32096 28.48384 0.96 34.144 14.1568 44.5632 107.80672 143.52256 186.84288 261.6192 207.42272a25.62176 25.62176 0 0 1 21.23264 29.62176c-2.83648 14.0288-16.40192 23.1872-30.47424 20.57728m302.38464-50.19904c118.16064-20.57856 217.12128-99.68128 261.62048-207.42144 5.43872-13.1072 20.7104-19.39968 34.14528-14.1568a25.4336 25.4336 0 0 1 14.61376 33.16224C1223.9872 727.23968 1110.15168 818.00576 974.22976 841.79584c-14.07232 2.60992-27.63776-6.54976-30.47424-20.57856a25.55776 25.55776 0 0 1 21.16864-29.62048M816.35328-27.60448c221.4464 0 401.0816 174.65344 401.0816 390.13504 0 215.48416-179.6352 390.1376-401.0816 390.1376-221.57568 0-401.1456-174.65344-401.1456-390.1376 0-215.4816 179.56864-390.13504 401.1456-390.13504m0 50.65856c-192.74112 0-348.9792 152.04352-348.9792 339.47648 0 187.49952 156.17152 339.41248 348.9792 339.41248 192.8064 0 348.91392-151.91296 348.91392-339.41248 0-187.43296-156.1728-339.47648-348.91392-339.47648m242.28736-27.45984l65.2736-63.43808c10.22464-9.96096 26.80448-9.96096 37.02784 0 10.22464 9.96096 10.22464 26.01728 0 35.97824l-65.2736 63.50336c-10.304 10.03136-26.72256 10.03136-37.02784 0a25.0944 25.0944 0 0 1 0-36.04352M792.43264 616.288v-253.82272c0-14.09024 11.7312-25.42848 26.2784-25.42848 14.4192 0 26.1504 11.33824 26.1504 25.42848V616.288c-0.25088 14.22976-11.91808 25.60256-26.1504 25.49248a25.82016 25.82016 0 0 1-26.2784-25.49248m175.90016-368.576l-126.81216 125.76384c-10.31296 9.98912-26.63936 10.16064-37.15968 0.39296a24.90112 24.90112 0 0 1-0.32768-36.0448l127.01056-125.76384c10.23872-10.02752 26.58176-10.144 36.96256-0.2624a24.8448 24.8448 0 0 1 7.84128 17.888 24.8512 24.8512 0 0 1-7.51488 18.02624M536.90752 31.63904l-65.2736-63.50336c-10.22336-9.89568-10.22336-25.952 0-35.97824 10.22336-10.02752 26.80448-9.96096 37.02784 0l65.20832 63.43808a25.03168 25.03168 0 0 1 0 36.0448c-10.28224 10.0224-26.68032 10.0224-36.96256-0.00128m0 0z"  horiz-adv-x="1638" />

    
    <glyph glyph-name="kuaijiefangshi" unicode="&#59133;" d="M409.168 805.875h-239.942c-44.825 0-79.102-34.278-79.102-79.102v-239.942c0-44.825 34.278-79.102 79.102-79.102h316.406v316.406c2.637 47.461-34.278 81.739-76.465 81.739zM854.773 805.875h-239.942c-44.825 0-79.102-34.278-79.102-79.102v-316.406h316.406c44.825 0 79.102 34.278 79.102 79.102v239.942c2.637 42.188-31.641 76.465-76.465 76.465zM854.773 360.269h-316.406v-316.406c0-44.825 34.278-79.102 79.102-79.102h239.942c44.825 0 79.102 34.278 79.102 79.102v239.942c-2.637 39.551-36.914 76.465-81.739 76.465zM335.339 360.269h-166.114c-44.825 0-79.102-34.278-79.102-79.102v-239.942c0-44.825 34.278-79.102 79.102-79.102h239.942c44.825 0 79.102 34.278 79.102 79.102v316.406h-152.93z"  horiz-adv-x="1027" />

    
    <glyph glyph-name="xiazai" unicode="&#58912;" d="M548.571 12V457.142H475.43v-445.144L373.286 114.143l-51.715-51.714L512-128l190.43 190.43-51.716 51.713zM802.178 639.214C784.499 783.857 661.429 896 512 896S239.5 783.857 221.822 639.214C98 631 0 528.214 0 402.286 0 271 106.428 164.57 237.714 164.57h128v73.143h-128c-90.75 0-164.571 73.822-164.571 164.572 0 86.213 67.428 158.25 153.536 163.927l60.392 4.036 7.356 60.107C307.857 740.107 401.357 822.857 512 822.857s204.144-82.75 217.57-192.5l7.357-60.106 60.392-4.036c86.11-5.68 153.538-77.716 153.538-163.93 0-90.75-73.821-164.57-164.571-164.57h-128v-73.144h128C917.572 164.571 1024 271 1024 402.286c0 125.928-98 228.714-221.822 236.928z"  horiz-adv-x="1024" />

    
    <glyph glyph-name="yihaoshi" unicode="&#58884;" d="M801.6096093333335 896v-60.271471c120.235435-0.307508 233.398198-47.048649 318.577778-132.228229 85.17958-85.17958 132.228228-198.64985 132.228228-319.5003s-47.048649-234.013213-132.228228-319.5003-198.64985-132.228228-319.5003-132.228229-234.013213 47.048649-319.500301 132.228229c-74.724324 74.724324-119.927928 171.281682-130.075675 275.219219H469.19399433333325l-150.678679 150.678679-150.678679-150.678679h123.003003C313.5951953333333 77.72252300000002 532.8480483333333-128 800.6870873333335-128c141.453453 0 269.376577 57.196396 361.936336 150.063664 92.55976 92.55976 150.063664 220.79039 150.063664 361.936336 0 282.599399-228.785586 511.384985-511.077478 512zM814.2174173333335 358.78438400000005l17.835436 17.527928V689.96997h-60.271472V401.22042l-158.673874-158.673873 42.436036-42.743544zM770.5513513333335 82.95015000000001h60.271471v-90.407207h-60.271471zM992.9038803333335 149.876084l42.617465 42.617466 63.927736-63.927736-42.620541-42.620541zM1102.6594593333332 415.058258h90.407207V354.786787h-90.407207zM992.9315553333334 619.6737539999999l63.924661 63.930811 42.62054-42.620541-63.93081-63.924661z"  horiz-adv-x="1489" />

    
    <glyph glyph-name="tubiaozhizuomoban" unicode="&#58889;" d="M517.057-127c-279.992 0-506.939 226.999-506.939 507.047C10.117 660.095 237.065 887.09 517.057 887.09 797.047 887.09 1024 660.095 1024 380.047S797.047-127 517.057-127zM243.146 166.782l-17.824 27.579c-4.503 4.613-10.691 7.443-17.504 7.443-13.522 0-24.527-11.01-24.527-24.536 0-7.336 3.46-13.73 8.594-18.242 1.888-3.04 3.777-6.185 5.661-9.225 0.21-0.629 0.738-1.049 1.049-1.679 2.201-3.564 8.593-9.225 8.593-9.225 3.88-2.521 8.181-4.301 13.001-4.301 13.524 0 24.528 11.005 24.528 24.531 0 2.835-0.732 5.245-1.571 7.655z m20.335-38.686c-13.523 0-24.526-11.009-24.526-24.532 0-7.865 3.982-14.575 9.745-19.081l-0.205-0.107c41.93-42.778 93.817-75.596 152.203-94.572 0.317-0.212 0.738-0.212 1.049-0.422 1.259-0.42 2.309-0.941 3.568-1.259l0.209 0.526c1.673-0.316 3.244-1.049 5.032-1.049 13.522 0 20.966 11.428 24.526 24.534 3.563 12.372-13.21 22.229-13.21 22.229-51.783 15.727-97.906 44.038-135.328 81.256 0.001-0.001-13.521 12.477-23.063 12.477z m455.414 206.026c0 16.662-13.58 30.231-30.262 30.231H557.489v80.621h131.144c16.682 0 30.262 13.569 30.262 30.237v20.157c0 16.661-13.58 30.229-30.262 30.229h-32.332c1.161 3.23 2.062 6.46 2.062 10.076v60.47c0 16.667-13.574 30.231-30.259 30.231h-20.18c-16.681 0-30.262-13.564-30.262-30.231v-60.47c0-3.616 0.907-6.846 2.075-10.076H454.54c1.163 3.23 2.071 6.46 2.071 10.076v60.47c0 16.667-13.583 30.231-30.266 30.231h-20.179c-16.677 0-30.26-13.564-30.26-30.231v-60.47c0-3.616 0.902-6.846 2.07-10.076h-32.333c-16.686 0-30.269-13.569-30.269-30.229v-20.157c0-16.668 13.583-30.237 30.269-30.237h131.143v-80.621H345.645c-16.686 0-30.269-13.569-30.269-30.231v-20.156c0-16.668 13.583-30.237 30.269-30.237h131.143v-151.165c0-16.666 13.577-30.238 30.263-30.238h20.174c16.684 0 30.265 13.572 30.265 30.238V283.729h131.144c16.682 0 30.262 13.569 30.262 30.237v20.156z"  horiz-adv-x="1024" />

    
    <glyph glyph-name="tijiao" unicode="&#59087;" d="M865.04 64.939l-416 128 416 480-544-480-320 128 1024 544-160-800z m-416-192v224l128-64-128-160z"  horiz-adv-x="1026" />

    
    <glyph glyph-name="tijiaochenggong" unicode="&#59220;" d="M512 890.311111C232.106667 890.311111 5.688889 663.893333 5.688889 384s226.417778-506.311111 506.311111-506.311111 506.311111 226.417778 506.311111 506.311111S791.893333 890.311111 512 890.311111z m-55.751111-793.031111L174.648889 372.053333l71.111111 59.164445 162.702222-124.017778s185.457778 213.333333 412.444445 357.262222l27.875555-33.564444c-0.568889-0.568889-259.413333-230.968889-392.533333-533.617778z"  horiz-adv-x="1024" />

    
    <glyph glyph-name="add" unicode="&#58883;" d="M510.352119-16.416237000000024c-220.548741 0-399.339141 178.82643-399.339141 399.403615S289.803378 782.377719 510.352119 782.377719c220.550637 0 399.341037-178.813156 399.341037-399.390341S730.902756-16.416237000000024 510.352119-16.416237000000024zM510.352119 732.455822c-192.982281 0-349.421037-156.461511-349.421037-349.468444S317.369837 33.51703699999996 510.352119 33.51703699999996s349.421037 156.463407 349.421037 349.470341S703.3344 732.455822 510.352119 732.455822zM660.104533 358.02074100000004L535.313067 358.02074100000004l0-124.81043c0-13.778489-11.174874-24.957156-24.959052-24.957156-13.784178 0-24.957156 11.178667-24.957156 24.957156l0 124.81043-124.795259 0c-13.784178 0-24.959052 11.17677-24.959052 24.966637 0 13.780385 11.17677 24.957156 24.959052 24.957156l124.795259 0 0 124.816119c0 13.778489 11.174874 24.951467 24.957156 24.951467 13.786074 0 24.959052-11.171081 24.959052-24.951467l0-124.816119 124.791467 0c13.786074 0 24.959052-11.17677 24.959052-24.957156C685.063585 369.19751099999996 673.890607 358.02074100000004 660.104533 358.02074100000004z"  horiz-adv-x="1024" />

    


  </font>
</defs>
</svg>
